<mxfile host="Electron" modified="2023-09-05T23:57:10.163Z" agent="Mozilla/5.0 (X11; Linux x86_64) AppleWebKit/537.36 (KHTML, like Gecko) draw.io/21.6.8 Chrome/114.0.5735.289 Electron/25.5.0 Safari/537.36" etag="MPpryP1GC-fGUtEKjVqi" version="21.6.8" type="device">
  <diagram id="35cDaVZkVmuHiRZ2rWSk" name="Page-1">
    <mxGraphModel dx="819" dy="550" grid="1" gridSize="10" guides="1" tooltips="1" connect="1" arrows="1" fold="1" page="1" pageScale="1" pageWidth="850" pageHeight="1100" math="0" shadow="0">
      <root>
        <mxCell id="0" />
        <mxCell id="1" parent="0" />
        <mxCell id="eyD4BGwEBFvhn-4cKuT_-49" value="" style="rounded=0;whiteSpace=wrap;html=1;fontSize=12;align=left;fillColor=#E6E6E6;" parent="1" vertex="1">
          <mxGeometry x="260" y="180" width="320" height="520" as="geometry" />
        </mxCell>
        <mxCell id="eyD4BGwEBFvhn-4cKuT_-44" value="" style="rounded=0;whiteSpace=wrap;html=1;fontSize=12;align=left;fillColor=#FFFFCC;" parent="1" vertex="1">
          <mxGeometry x="300" y="450" width="240" height="220" as="geometry" />
        </mxCell>
        <mxCell id="eyD4BGwEBFvhn-4cKuT_-43" value="" style="rounded=0;whiteSpace=wrap;html=1;fontSize=12;align=left;fillColor=#FFFFCC;" parent="1" vertex="1">
          <mxGeometry x="300" y="210" width="240" height="220" as="geometry" />
        </mxCell>
        <mxCell id="eyD4BGwEBFvhn-4cKuT_-11" style="edgeStyle=orthogonalEdgeStyle;rounded=0;orthogonalLoop=1;jettySize=auto;html=1;exitX=0.75;exitY=0;exitDx=0;exitDy=0;entryX=0.75;entryY=1;entryDx=0;entryDy=0;startArrow=none;startFill=0;endArrow=classic;endFill=1;" parent="1" source="eyD4BGwEBFvhn-4cKuT_-1" target="eyD4BGwEBFvhn-4cKuT_-4" edge="1">
          <mxGeometry relative="1" as="geometry" />
        </mxCell>
        <mxCell id="eyD4BGwEBFvhn-4cKuT_-1" value="&lt;div&gt;baud_gen&lt;/div&gt;" style="rounded=0;whiteSpace=wrap;html=1;fillColor=#FFE599;" parent="1" vertex="1">
          <mxGeometry x="350" y="600" width="130" height="30" as="geometry" />
        </mxCell>
        <mxCell id="eyD4BGwEBFvhn-4cKuT_-2" value="enable" style="text;html=1;strokeColor=none;fillColor=none;align=center;verticalAlign=middle;whiteSpace=wrap;rounded=0;" parent="1" vertex="1">
          <mxGeometry x="300" y="570" width="100" height="20" as="geometry" />
        </mxCell>
        <mxCell id="eyD4BGwEBFvhn-4cKuT_-3" value="baud_pulse" style="text;html=1;strokeColor=none;fillColor=none;align=center;verticalAlign=middle;whiteSpace=wrap;rounded=0;" parent="1" vertex="1">
          <mxGeometry x="440" y="570" width="100" height="20" as="geometry" />
        </mxCell>
        <mxCell id="eyD4BGwEBFvhn-4cKuT_-10" style="edgeStyle=orthogonalEdgeStyle;rounded=0;orthogonalLoop=1;jettySize=auto;html=1;exitX=0.25;exitY=1;exitDx=0;exitDy=0;entryX=0.25;entryY=0;entryDx=0;entryDy=0;startArrow=none;startFill=0;endArrow=classic;endFill=1;" parent="1" source="eyD4BGwEBFvhn-4cKuT_-4" target="eyD4BGwEBFvhn-4cKuT_-1" edge="1">
          <mxGeometry relative="1" as="geometry" />
        </mxCell>
        <mxCell id="eyD4BGwEBFvhn-4cKuT_-13" style="edgeStyle=orthogonalEdgeStyle;rounded=0;orthogonalLoop=1;jettySize=auto;html=1;exitX=0;exitY=0.5;exitDx=0;exitDy=0;startArrow=classic;startFill=1;endArrow=none;endFill=0;" parent="1" source="eyD4BGwEBFvhn-4cKuT_-4" edge="1">
          <mxGeometry relative="1" as="geometry">
            <mxPoint x="190" y="520" as="targetPoint" />
          </mxGeometry>
        </mxCell>
        <mxCell id="eyD4BGwEBFvhn-4cKuT_-16" style="edgeStyle=orthogonalEdgeStyle;rounded=0;orthogonalLoop=1;jettySize=auto;html=1;exitX=0;exitY=0.25;exitDx=0;exitDy=0;startArrow=classic;startFill=1;endArrow=none;endFill=0;" parent="1" source="eyD4BGwEBFvhn-4cKuT_-4" edge="1">
          <mxGeometry relative="1" as="geometry">
            <mxPoint x="190" y="500" as="targetPoint" />
          </mxGeometry>
        </mxCell>
        <mxCell id="eyD4BGwEBFvhn-4cKuT_-17" style="edgeStyle=orthogonalEdgeStyle;rounded=0;orthogonalLoop=1;jettySize=auto;html=1;exitX=0;exitY=0.75;exitDx=0;exitDy=0;startArrow=none;startFill=0;endArrow=classic;endFill=1;" parent="1" source="eyD4BGwEBFvhn-4cKuT_-4" edge="1">
          <mxGeometry relative="1" as="geometry">
            <mxPoint x="190" y="540" as="targetPoint" />
          </mxGeometry>
        </mxCell>
        <mxCell id="eyD4BGwEBFvhn-4cKuT_-23" style="edgeStyle=orthogonalEdgeStyle;rounded=0;orthogonalLoop=1;jettySize=auto;html=1;exitX=1;exitY=0.5;exitDx=0;exitDy=0;fontSize=10;startArrow=none;startFill=0;endArrow=classic;endFill=1;" parent="1" source="eyD4BGwEBFvhn-4cKuT_-4" edge="1">
          <mxGeometry relative="1" as="geometry">
            <mxPoint x="640" y="520.3103448275863" as="targetPoint" />
          </mxGeometry>
        </mxCell>
        <mxCell id="eyD4BGwEBFvhn-4cKuT_-4" value="p_uart_tx_fsm" style="rounded=0;whiteSpace=wrap;html=1;fillColor=#A9C4EB;" parent="1" vertex="1">
          <mxGeometry x="350" y="480" width="130" height="80" as="geometry" />
        </mxCell>
        <mxCell id="eyD4BGwEBFvhn-4cKuT_-14" value="s_axis_transmit_tvalid" style="text;html=1;strokeColor=none;fillColor=none;align=left;verticalAlign=middle;whiteSpace=wrap;rounded=0;" parent="1" vertex="1">
          <mxGeometry x="50" y="510" width="140" height="20" as="geometry" />
        </mxCell>
        <mxCell id="eyD4BGwEBFvhn-4cKuT_-18" value="s_axis_transmit_tdata" style="text;html=1;strokeColor=none;fillColor=none;align=left;verticalAlign=middle;whiteSpace=wrap;rounded=0;" parent="1" vertex="1">
          <mxGeometry x="50" y="490" width="140" height="20" as="geometry" />
        </mxCell>
        <mxCell id="eyD4BGwEBFvhn-4cKuT_-19" value="s_axis_transmit_tready" style="text;html=1;strokeColor=none;fillColor=none;align=left;verticalAlign=middle;whiteSpace=wrap;rounded=0;" parent="1" vertex="1">
          <mxGeometry x="50" y="530" width="140" height="20" as="geometry" />
        </mxCell>
        <mxCell id="eyD4BGwEBFvhn-4cKuT_-20" value="" style="endArrow=none;html=1;" parent="1" edge="1">
          <mxGeometry width="50" height="50" relative="1" as="geometry">
            <mxPoint x="226" y="505" as="sourcePoint" />
            <mxPoint x="236" y="495" as="targetPoint" />
          </mxGeometry>
        </mxCell>
        <mxCell id="eyD4BGwEBFvhn-4cKuT_-21" value="8" style="text;html=1;strokeColor=none;fillColor=none;align=center;verticalAlign=middle;whiteSpace=wrap;rounded=0;fontSize=10;" parent="1" vertex="1">
          <mxGeometry x="219" y="486" width="20" height="10" as="geometry" />
        </mxCell>
        <mxCell id="eyD4BGwEBFvhn-4cKuT_-24" value="txd" style="text;html=1;strokeColor=none;fillColor=none;align=center;verticalAlign=middle;whiteSpace=wrap;rounded=0;fontSize=12;" parent="1" vertex="1">
          <mxGeometry x="640" y="510" width="40" height="20" as="geometry" />
        </mxCell>
        <mxCell id="eyD4BGwEBFvhn-4cKuT_-42" style="edgeStyle=orthogonalEdgeStyle;rounded=0;orthogonalLoop=1;jettySize=auto;html=1;exitX=0.75;exitY=1;exitDx=0;exitDy=0;entryX=0.75;entryY=0;entryDx=0;entryDy=0;fontSize=12;startArrow=none;startFill=0;endArrow=classic;endFill=1;" parent="1" source="eyD4BGwEBFvhn-4cKuT_-26" target="eyD4BGwEBFvhn-4cKuT_-34" edge="1">
          <mxGeometry relative="1" as="geometry" />
        </mxCell>
        <mxCell id="eyD4BGwEBFvhn-4cKuT_-26" value="&lt;div&gt;baud_gen&lt;/div&gt;" style="rounded=0;whiteSpace=wrap;html=1;fillColor=#FFE599;" parent="1" vertex="1">
          <mxGeometry x="350" y="250" width="130" height="30" as="geometry" />
        </mxCell>
        <mxCell id="eyD4BGwEBFvhn-4cKuT_-27" value="enable" style="text;html=1;strokeColor=none;fillColor=none;align=center;verticalAlign=middle;whiteSpace=wrap;rounded=0;" parent="1" vertex="1">
          <mxGeometry x="300" y="290" width="100" height="20" as="geometry" />
        </mxCell>
        <mxCell id="eyD4BGwEBFvhn-4cKuT_-28" value="baud_pulse" style="text;html=1;strokeColor=none;fillColor=none;align=center;verticalAlign=middle;whiteSpace=wrap;rounded=0;" parent="1" vertex="1">
          <mxGeometry x="440" y="290" width="100" height="20" as="geometry" />
        </mxCell>
        <mxCell id="eyD4BGwEBFvhn-4cKuT_-30" style="edgeStyle=orthogonalEdgeStyle;rounded=0;orthogonalLoop=1;jettySize=auto;html=1;exitX=0;exitY=0.5;exitDx=0;exitDy=0;startArrow=none;startFill=0;endArrow=classic;endFill=1;" parent="1" source="eyD4BGwEBFvhn-4cKuT_-34" edge="1">
          <mxGeometry relative="1" as="geometry">
            <mxPoint x="190" y="360" as="targetPoint" />
          </mxGeometry>
        </mxCell>
        <mxCell id="eyD4BGwEBFvhn-4cKuT_-31" style="edgeStyle=orthogonalEdgeStyle;rounded=0;orthogonalLoop=1;jettySize=auto;html=1;exitX=0;exitY=0.25;exitDx=0;exitDy=0;startArrow=none;startFill=0;endArrow=classic;endFill=1;" parent="1" source="eyD4BGwEBFvhn-4cKuT_-34" edge="1">
          <mxGeometry relative="1" as="geometry">
            <mxPoint x="190" y="340" as="targetPoint" />
          </mxGeometry>
        </mxCell>
        <mxCell id="eyD4BGwEBFvhn-4cKuT_-32" style="edgeStyle=orthogonalEdgeStyle;rounded=0;orthogonalLoop=1;jettySize=auto;html=1;exitX=0;exitY=0.75;exitDx=0;exitDy=0;startArrow=classic;startFill=1;endArrow=none;endFill=0;" parent="1" source="eyD4BGwEBFvhn-4cKuT_-34" edge="1">
          <mxGeometry relative="1" as="geometry">
            <mxPoint x="190" y="380" as="targetPoint" />
          </mxGeometry>
        </mxCell>
        <mxCell id="eyD4BGwEBFvhn-4cKuT_-33" style="edgeStyle=orthogonalEdgeStyle;rounded=0;orthogonalLoop=1;jettySize=auto;html=1;exitX=1;exitY=0.5;exitDx=0;exitDy=0;fontSize=10;startArrow=classic;startFill=1;endArrow=none;endFill=0;" parent="1" source="eyD4BGwEBFvhn-4cKuT_-34" edge="1">
          <mxGeometry relative="1" as="geometry">
            <mxPoint x="640" y="360.3103448275863" as="targetPoint" />
          </mxGeometry>
        </mxCell>
        <mxCell id="eyD4BGwEBFvhn-4cKuT_-41" style="edgeStyle=orthogonalEdgeStyle;rounded=0;orthogonalLoop=1;jettySize=auto;html=1;exitX=0.25;exitY=0;exitDx=0;exitDy=0;entryX=0.25;entryY=1;entryDx=0;entryDy=0;fontSize=12;startArrow=none;startFill=0;endArrow=classic;endFill=1;" parent="1" source="eyD4BGwEBFvhn-4cKuT_-34" target="eyD4BGwEBFvhn-4cKuT_-26" edge="1">
          <mxGeometry relative="1" as="geometry" />
        </mxCell>
        <mxCell id="eyD4BGwEBFvhn-4cKuT_-34" value="p_uart_rx_fsm" style="rounded=0;whiteSpace=wrap;html=1;fillColor=#A9C4EB;" parent="1" vertex="1">
          <mxGeometry x="350" y="320" width="130" height="80" as="geometry" />
        </mxCell>
        <mxCell id="eyD4BGwEBFvhn-4cKuT_-35" value="m_axis_receive_tvalid" style="text;html=1;strokeColor=none;fillColor=none;align=left;verticalAlign=middle;whiteSpace=wrap;rounded=0;" parent="1" vertex="1">
          <mxGeometry x="50" y="350" width="140" height="20" as="geometry" />
        </mxCell>
        <mxCell id="eyD4BGwEBFvhn-4cKuT_-36" value="m_axis_receive_tdata" style="text;html=1;strokeColor=none;fillColor=none;align=left;verticalAlign=middle;whiteSpace=wrap;rounded=0;" parent="1" vertex="1">
          <mxGeometry x="50" y="330" width="140" height="20" as="geometry" />
        </mxCell>
        <mxCell id="eyD4BGwEBFvhn-4cKuT_-37" value="m_axis_receive_tready" style="text;html=1;strokeColor=none;fillColor=none;align=left;verticalAlign=middle;whiteSpace=wrap;rounded=0;" parent="1" vertex="1">
          <mxGeometry x="50" y="370" width="140" height="20" as="geometry" />
        </mxCell>
        <mxCell id="eyD4BGwEBFvhn-4cKuT_-38" value="" style="endArrow=none;html=1;" parent="1" edge="1">
          <mxGeometry width="50" height="50" relative="1" as="geometry">
            <mxPoint x="226" y="345" as="sourcePoint" />
            <mxPoint x="236" y="335" as="targetPoint" />
          </mxGeometry>
        </mxCell>
        <mxCell id="eyD4BGwEBFvhn-4cKuT_-39" value="8" style="text;html=1;strokeColor=none;fillColor=none;align=center;verticalAlign=middle;whiteSpace=wrap;rounded=0;fontSize=10;" parent="1" vertex="1">
          <mxGeometry x="219" y="326" width="20" height="10" as="geometry" />
        </mxCell>
        <mxCell id="eyD4BGwEBFvhn-4cKuT_-40" value="rxd" style="text;html=1;strokeColor=none;fillColor=none;align=center;verticalAlign=middle;whiteSpace=wrap;rounded=0;fontSize=12;" parent="1" vertex="1">
          <mxGeometry x="640" y="350" width="40" height="20" as="geometry" />
        </mxCell>
        <mxCell id="eyD4BGwEBFvhn-4cKuT_-45" value="uart_tx" style="text;html=1;strokeColor=none;fillColor=none;align=center;verticalAlign=middle;whiteSpace=wrap;rounded=0;fontSize=12;" parent="1" vertex="1">
          <mxGeometry x="300" y="650" width="240" height="20" as="geometry" />
        </mxCell>
        <mxCell id="eyD4BGwEBFvhn-4cKuT_-46" value="uart_rx" style="text;html=1;strokeColor=none;fillColor=none;align=center;verticalAlign=middle;whiteSpace=wrap;rounded=0;fontSize=12;" parent="1" vertex="1">
          <mxGeometry x="300" y="210" width="240" height="20" as="geometry" />
        </mxCell>
        <mxCell id="eyD4BGwEBFvhn-4cKuT_-50" value="axistream_uart" style="text;html=1;strokeColor=none;fillColor=none;align=center;verticalAlign=middle;whiteSpace=wrap;rounded=0;fontSize=12;" parent="1" vertex="1">
          <mxGeometry x="260" y="180" width="320" height="20" as="geometry" />
        </mxCell>
      </root>
    </mxGraphModel>
  </diagram>
</mxfile>
